<?xml version="1.0" encoding="UTF-8" standalone="no"?>
<svg
   xmlns:dc="http://purl.org/dc/elements/1.1/"
   xmlns:cc="http://creativecommons.org/ns#"
   xmlns:rdf="http://www.w3.org/1999/02/22-rdf-syntax-ns#"
   xmlns:svg="http://www.w3.org/2000/svg"
   xmlns="http://www.w3.org/2000/svg"
   id="svg10"
   version="1.1"
   style="overflow:visible"
   viewBox="-240 -126 480 252"
   height="1008px"
   width="1920px">
  <metadata
     id="metadata16">
    <rdf:RDF>
      <cc:Work
         rdf:about="">
        <dc:format>image/svg+xml</dc:format>
        <dc:type
           rdf:resource="http://purl.org/dc/dcmitype/StillImage" />
      </cc:Work>
    </rdf:RDF>
  </metadata>
  <defs
     id="defs14" />
  <rect
     id="rect2"
     fill-opacity="0"
     fill="rgb(0,0,0)"
     height="252"
     width="480"
     y="-126"
     x="-240" />
  <svg
     id="svg8"
     version="1.1"
     y="-250"
     x="-250"
     viewBox="-250 -250 500 500"
     height="500"
     width="500"
     style="overflow:visible">
    <g
       style="fill:#ffffff;stroke-linejoin:round"
       id="g6">
      <path
         style="fill:#ffffff;fill-opacity:1;stroke:#444444;stroke-width:1;stroke-linecap:butt;stroke-linejoin:round;stroke-opacity:1"
         id="path4"
         d="m 0.112155,-103.5 c -7.61059,0 -11.80597,7.420173 -10.510025,14.546463 0.64201,3.530585 2.049999,7.00632 4.33805,9.27541 -4.5e-4,1.98095 -0.147395,4.203478 -0.68785,6.013122 -1.276585,4.274585 -5.271385,5.55265 -9.271585,6.41453 -14.696805,3.166585 -9.47915,13.61358 -12.69837,35.31029 -2.34682,15.8169 -0.251565,23.86143 -0.251565,28.62903 0,4.76759 -1.41119,8.02337 -0.978095,11.924145 0.433095,3.90076 2.930105,7.47706 4.109365,8.022779 1.62033,0.749835 2.945865,-2.332765 1.753855,-6.63812 -0.229445,-0.82873 1.265415,-3.111375 1.33783,-5.53866 0.10043,-3.364795 -0.829435,-5.60969 -0.829435,-8.00166 0,-4.117465 1.6804,-11.60442 1.77412,-21.31398 0.07574,-7.85196 3.5359,-19.63091 3.5359,-19.63091 4.61618,14.03742 0.92581,21.184005 -0.0053,35.937035 -1.67284,26.507905 4.58218,44.84119 4.28883,51.41483 -0.24535,5.49759 -0.12632,9.79538 1.822485,19.54728 1.948855,9.7519 4.28982,24.11368 4.073295,28.23115 -0.21657,4.117465 -5.22545,6.6887 -5.57739,9.947936 -0.294435,2.72664 7.05622,3.80142 9.005075,2.06775 1.94885,-1.73367 4.53395,-6.722801 3.57373,-10.633661 -1.29122,-5.25898 0.70573,-23.77853 -1.018586,-35.144795 -0.807055,-5.319955 -1.627125,-8.43828 -0.76522,-14.40298 1.577145,-10.914105 1.5562,-34.240345 0.877805,-37.619735 h 3.98183 c -0.6783,3.37939 -0.6992,26.70563 0.87781,37.619735 0.861905,5.9647 0.04195,9.08303 -0.765225,14.40298 -1.724265,11.36626 0.272685,29.885815 -1.018535,35.144795 -0.96022,3.91086 1.624875,8.899991 3.57373,10.633661 1.94881,1.73367 9.299465,0.65889 9.005075,-2.06775 -0.35199,-3.259236 -5.360865,-5.830471 -5.57739,-9.947936 -0.21657,-4.11747 2.124485,-18.47925 4.073295,-28.23115 1.94885,-9.7519 2.067829,-14.04969 1.822485,-19.54728 -0.293395,-6.57364 5.96166,-24.906925 4.288785,-51.41483 -0.93104,-14.75303 -4.622215,-21.899615 -0.0062,-35.937035 0,0 3.460135,11.77895 3.535905,19.63091 0.0937,9.70956 1.7741,17.196515 1.7741,21.31398 0,2.39197 -0.928955,4.636865 -0.82856,8.001659 0.07242,2.427285 1.56727,4.70993 1.33783,5.53866 -1.192,4.305355 0.13354,7.387955 1.75387,6.63812 1.17925,-0.54572 3.676295,-4.12202 4.109365,-8.02278 0.433075,-3.900775 -0.97808,-7.156555 -0.97808,-11.924145 0,-4.7676 2.09525,-12.81213 -0.251565,-28.62903 -3.219215,-21.69671 1.997545,-32.143705 -12.69926,-35.31029 -4.00016,-0.86188 -7.995005,-2.139945 -9.271585,-6.41453 -0.520505,-1.742924 -0.67682,-3.871212 -0.68871,-5.796577 2.42167,-2.26051 3.90122,-5.84669 4.56408,-9.491955 C 11.918119,-96.079829 7.722829,-103.5 0.112189,-103.5 Z" />
    </g>
  </svg>
</svg>
